<!DOCTYPE svg PUBLIC "-//W3C//DTD SVG 1.1//EN" "http://www.w3.org/Graphics/SVG/1.1/DTD/svg11.dtd">
<!-- Uploaded to: SVG Repo, www.svgrepo.com, Transformed by: SVG Repo Mixer Tools -->
<svg fill="#ffffff" height="800px" width="800px" version="1.1" id="Layer_1" xmlns="http://www.w3.org/2000/svg" xmlns:xlink="http://www.w3.org/1999/xlink" viewBox="0 0 512.001 512.001" xml:space="preserve" stroke="#ffffff">
<g id="SVGRepo_bgCarrier" stroke-width="0"/>
<g id="SVGRepo_tracerCarrier" stroke-linecap="round" stroke-linejoin="round"/>
<g id="SVGRepo_iconCarrier"> <g> <g> <path d="M427.101,103.706c-4.868-4.892-9.947-9.575-15.216-14.031c-10.944-9.257-22.698-17.451-35.082-24.659 c-15.3-8.857-31.503-16.025-48.362-21.322c-8.197-2.575-13.705-10.076-13.705-18.666V0H275.58v25.026 c-0.001,25.781,16.527,48.294,41.125,56.023c13.666,4.293,26.864,10.057,39.309,17.151c3.832,2.184,7.592,4.496,11.273,6.927 c16.358,10.786,31.031,23.846,43.72,38.954l29.986-25.182C441.243,118.689,428.312,104.924,427.101,103.706z"/> </g> </g> <g> <g> <path d="M256,110.943c-89.962,0-163.152,73.19-163.152,163.152S166.038,437.248,256,437.248s163.152-73.19,163.152-163.152 S345.962,110.943,256,110.943z M201.954,162.514c-0.427,1.106-0.851,2.218-1.27,3.369c-8.894,24.46-14.427,55.397-15.995,88.635 h-51.133C140.016,213.962,166.208,179.898,201.954,162.514z M133.555,293.674h51.133c1.569,33.237,7.1,64.175,15.995,88.635 c0.419,1.151,0.843,2.263,1.27,3.369C166.208,368.293,140.016,334.229,133.555,293.674z M236.825,181.109 c8.597-24.614,17.438-30.789,19.149-31.009c0.005,0,0.01,0,0.014,0c1.745,0.218,10.587,6.39,19.185,31.009 c7.043,20.164,11.517,45.718,12.952,73.408h-64.252C225.309,226.827,229.783,201.274,236.825,181.109z M275.178,367.082 c-8.6,24.615-17.44,30.79-19.151,31.009c-0.005,0-0.01,0-0.014,0c-1.745-0.218-10.587-6.39-19.185-31.009 c-7.043-20.164-11.517-45.718-12.952-73.408h64.255C286.693,321.364,282.219,346.917,275.178,367.082z M378.445,254.517h-51.133 c-1.569-33.237-7.1-64.175-15.995-88.635c-0.419-1.151-0.843-2.263-1.27-3.369C345.792,179.898,371.984,213.962,378.445,254.517z M310.046,385.677c0.427-1.106,0.851-2.218,1.27-3.369c8.894-24.46,14.427-55.397,15.995-88.635h51.133 C371.984,334.229,345.792,368.293,310.046,385.677z"/> </g> </g> <g> <g> <path d="M65.757,343.094l-36.81,13.354c9.614,26.502,23.709,50.944,41.894,72.646l30.013-25.149 C85.616,385.758,73.807,365.286,65.757,343.094z"/> </g> </g> <g> <g> <path d="M29.119,191.274c-9.647,26.419-14.553,54.195-14.583,82.559l39.156,0.04c0.025-23.781,4.131-47.053,12.208-69.17 L29.119,191.274z"/> </g> </g> <g> <g> <path d="M197.265,0v25.02c0,8.583-5.614,16.121-13.967,18.755c-16.682,5.261-32.743,12.372-47.93,21.105 c-3.279,1.886-6.526,3.856-9.698,5.917c-0.074,0.048-0.151,0.093-0.222,0.145c-20.382,13.112-38.617,29.148-54.307,47.801 l29.965,25.208c13.207-15.703,28.561-29.193,45.726-40.208c13.559-8.702,28.163-15.789,43.398-21.027 c1.608-0.553,3.224-1.085,4.846-1.596c24.73-7.801,41.345-30.345,41.345-56.098V0H197.265z"/> </g> </g> <g> <g> <path d="M154.609,449.205l-19.654,33.868c24.46,14.196,50.964,23.884,78.775,28.797l6.812-38.56 C197.268,469.199,175.084,461.089,154.609,449.205z"/> </g> </g> <g> <g> <path d="M356.854,449.517c-20.513,11.821-42.725,19.863-66.021,23.904l6.692,38.581c27.835-4.827,54.374-14.436,78.88-28.558 L356.854,449.517z"/> </g> </g> <g> <g> <path d="M482.963,191.497l-36.794,13.394c8.056,22.13,12.14,45.414,12.14,69.204v0.405l39.156,0.155v-0.56 C497.465,245.724,492.586,217.933,482.963,191.497z"/> </g> </g> <g> <g> <path d="M446.025,343.694c-8.117,22.156-19.984,42.584-35.272,60.719l29.938,25.238c18.243-21.638,32.407-46.027,42.101-72.487 L446.025,343.694z"/> </g> </g> </g>
</svg>